D:\school\WTK\thesis\model\3dpredictsim\Results\batch_windlass\Pog_s1_tmt_aCst_d00_k500_WL30_ig24_act_TTC_GRF.mot
nRows=12
nColumns=19

name D:\school\WTK\thesis\model\3dpredictsim\Results\batch_windlass\Pog_s1_tmt_aCst_d00_k500_WL30_ig24_act_TTC_GRF.mot
datacolumns 19
datarows 12
range 0.0000000000 0.1265382394
endheader
time 	ground_force_vx	ground_force_vy	ground_force_vz	ground_force_px	ground_force_py	ground_force_pz	1_ground_force_vx	1_ground_force_vy	1_ground_force_vz	1_ground_force_px	1_ground_force_py	1_ground_force_pz	ground_torque_x	ground_torque_y	ground_torque_z	1_ground_torque_x	1_ground_torque_y	1_ground_torque_z
        0.0000000000	      -42.1915864702	       29.9306041767	        5.1921606826	        0.1602004965	        0.0000000000	        0.0695692418	       85.1729953912	      404.7345687592	        2.0389046754	       -0.3605048563	        0.0000000000	       -0.0338229223	        0.0000000000	        0.0000000000	        0.0000000000	        0.0000000000	        0.0000000000	        0.0000000000	
        0.0115034763	     -101.8708352461	       86.6514069721	       15.6911007436	        0.1762020171	        0.0000000000	        0.0690477832	       56.4360356299	      308.5582045645	       -1.7670999130	       -0.3521511393	        0.0000000000	       -0.0294607050	        0.0000000000	        0.0000000000	        0.0000000000	        0.0000000000	        0.0000000000	        0.0000000000	
        0.0230069526	     -144.8319910959	      254.5801393834	       23.5507684310	        0.1909052167	        0.0000000000	        0.0687812498	       32.2529392149	      229.9245728761	      -16.1191725763	       -0.3427695236	        0.0000000000	       -0.0244769609	        0.0000000000	        0.0000000000	        0.0000000000	        0.0000000000	        0.0000000000	        0.0000000000	
        0.0345104289	     -103.6954127401	      568.4092158413	       -9.7711472097	        0.2014621849	        0.0000000000	        0.0667179570	       20.0985505466	      190.6332727570	      -18.8531513997	       -0.3415714707	        0.0000000000	       -0.0236902981	        0.0000000000	        0.0000000000	        0.0000000000	        0.0000000000	        0.0000000000	        0.0000000000	
        0.0460139052	     -139.7804531990	      846.6138897943	      -22.4433470725	        0.2128799470	        0.0000000000	        0.0645068466	       12.5004753297	      139.0905573640	      -16.6588898460	       -0.3415006464	        0.0000000000	       -0.0236775430	        0.0000000000	        0.0000000000	        0.0000000000	        0.0000000000	        0.0000000000	        0.0000000000	
        0.0575173815	     -158.2210362188	      928.6760050101	      -22.7710669817	        0.2180001427	        0.0000000000	        0.0630526132	       -4.6408522641	       74.2015549728	      -15.3860387383	       -0.3425128897	        0.0000000000	       -0.0241594420	        0.0000000000	        0.0000000000	        0.0000000000	        0.0000000000	        0.0000000000	        0.0000000000	
        0.0690208578	     -146.1725080833	      903.4372616414	      -25.2052102691	        0.2209831435	        0.0000000000	        0.0620824430	      -16.9098521931	       19.2170219764	       -3.6297194917	       -0.3477218571	        0.0000000000	       -0.0232303432	        0.0000000000	        0.0000000000	        0.0000000000	        0.0000000000	        0.0000000000	        0.0000000000	
        0.0805243341	     -129.4386740405	      849.4631603215	      -25.5640122215	        0.2238265295	        0.0000000000	        0.0614202350	       -3.1596087444	        2.7424155644	        0.2668372567	        0.0000000000	        0.0000000000	        0.0000000000	        0.0000000000	        0.0000000000	        0.0000000000	        0.0000000000	        0.0000000000	        0.0000000000	
        0.0920278104	     -115.1260372412	      799.4429403727	      -23.7936771015	        0.2264446341	        0.0000000000	        0.0609942209	       -7.8411147808	        5.6821348625	        0.7898265210	        0.0000000000	        0.0000000000	        0.0000000000	        0.0000000000	        0.0000000000	        0.0000000000	        0.0000000000	        0.0000000000	        0.0000000000	
        0.1035312868	     -101.6637566348	      760.3815385140	      -22.6187794602	        0.2286265372	        0.0000000000	        0.0607493743	       -4.5184362554	        2.8943803792	        0.5061752939	        0.0000000000	        0.0000000000	        0.0000000000	        0.0000000000	        0.0000000000	        0.0000000000	        0.0000000000	        0.0000000000	        0.0000000000	
        0.1150347631	      -86.7085480333	      727.8785190166	      -21.7122496040	        0.2305710685	        0.0000000000	        0.0606334702	       -0.7891325917	        0.4658128048	        0.0812777590	        0.0000000000	        0.0000000000	        0.0000000000	        0.0000000000	        0.0000000000	        0.0000000000	        0.0000000000	        0.0000000000	        0.0000000000	
        0.1265382394	      -72.8196650558	      695.7399940568	      -21.4711580310	        0.2332122018	        0.0000000000	        0.0604805462	       -0.5180556251	        0.2938531428	        0.0478707523	        0.0000000000	        0.0000000000	        0.0000000000	        0.0000000000	        0.0000000000	        0.0000000000	        0.0000000000	        0.0000000000	        0.0000000000	
